<?xml version="1.0" encoding="UTF-8" standalone="no"?>
<!-- Created with Inkscape (http://www.inkscape.org/) -->

<svg
   width="159.60001mm"
   height="167.5mm"
   viewBox="0 0 159.60001 167.5"
   version="1.1"
   id="svg5"
   xml:space="preserve"
   inkscape:version="1.2.1 (9c6d41e410, 2022-07-14, custom)"
   sodipodi:docname="avery.svg"
   xmlns:inkscape="http://www.inkscape.org/namespaces/inkscape"
   xmlns:sodipodi="http://sodipodi.sourceforge.net/DTD/sodipodi-0.dtd"
   xmlns="http://www.w3.org/2000/svg"
   xmlns:svg="http://www.w3.org/2000/svg"><sodipodi:namedview
     id="namedview7"
     pagecolor="#ffffff"
     bordercolor="#666666"
     borderopacity="1.0"
     inkscape:showpageshadow="2"
     inkscape:pageopacity="0.0"
     inkscape:pagecheckerboard="0"
     inkscape:deskcolor="#d1d1d1"
     inkscape:document-units="mm"
     showgrid="false"
     inkscape:zoom="1.1011145"
     inkscape:cx="495.40715"
     inkscape:cy="330.57416"
     inkscape:window-width="2540"
     inkscape:window-height="1024"
     inkscape:window-x="1928"
     inkscape:window-y="44"
     inkscape:window-maximized="1"
     inkscape:current-layer="layer2" /><defs
     id="defs2" /><g
     inkscape:groupmode="layer"
     id="layer2"
     inkscape:label="svg"><path
       id="path1343"
       style="fill:none;fill-opacity:1;stroke:#000000;stroke-width:0.765;stroke-linecap:round;stroke-linejoin:round;stroke-dasharray:none;stroke-opacity:1"
       d="m 73.648782,66.446291 c 2.898089,-1.748004 2.750421,-3.15461 -0.382296,-7.391017 m -13.210381,-6.79634 c 0.187076,3.267054 1.114866,5.521174 0.467246,10.109554 -0.703693,9.468784 6.106546,6.70841 7.348543,6.32909 m 3.100829,14.569588 c 2.669871,-1.238434 5.429328,-2.073738 8.325516,-2.293758 M 60.271246,78.743063 c 0.04981,0.0872 3.007871,-0.548827 5.136133,-1.682001 2.939193,-1.564941 3.514194,-0.750897 5.947098,-1.231464 2.656077,-0.524647 2.131225,-2.032678 7.899431,-2.553035 3.148834,-0.284057 5.406454,-2.793322 5.406454,-2.793322 M 46.463427,53.575724 c -0.138405,1.70702 0.70726,2.78096 2.219431,3.589317 m 1.943325,-5.787508 c 1.094332,0.785687 2.019873,1.860754 1.964569,3.801704 m 1.70336,-3.918947 c 1.737097,0.86636 1.086288,1.496033 0.498479,2.228121 m -11.641782,3.658906 c 1.049535,-1.142475 1.918788,-2.435184 3.148609,-3.42742 1.81459,-1.272632 2.873831,-1.707099 4.390391,-2.369501 1.401939,-0.217107 2.448457,-0.163747 3.659205,-0.104709 3.340795,0.472897 1.893011,1.858258 0.996352,2.267292 -0.335404,0.100836 -0.383813,-0.0033 -0.540644,-0.03004 -1.098278,0.933248 -2.209494,1.814742 -3.364016,2.523011 l -1.772116,0.87104 -1.201433,0.390467 -1.862225,0.240287 c -0.655578,-0.04965 -1.33036,-0.137708 -2.042438,-0.300358 l -0.630753,-0.120144 c -0.239587,-0.207933 -0.514883,-0.02307 -0.780932,0.06007 z M 79.675051,42.212719 c 1.221995,1.19917 1.460129,2.364258 0.817967,3.985936 m -5.241272,-2.911181 c -0.333667,1.325448 -0.313156,2.396055 0.997317,3.827736 m -4.145844,-1.42399 c -0.778366,1.81582 0.317029,1.241638 1.250033,1.402951 m 11.217871,-4.391653 c -1.558331,-0.163421 -3.075279,-0.560939 -4.674997,-0.49026 -2.235356,0.249112 -3.338782,0.627891 -4.944963,1.13966 -1.22665,0.772146 -2.00162,1.51154 -2.899965,2.364923 -2.276325,2.589289 0.555881,1.746608 0.497436,1.743904 0.420973,-0.158358 0.719619,-0.237627 0.823511,-0.362615 1.4594,-0.02744 2.555193,0.205263 3.911175,-0.02998 l 2.035775,-0.46089 1.184718,-0.379615 1.629828,-0.998337 c 0.474879,-0.475453 0.886428,-1.003425 1.331221,-1.602124 l 0.388385,-0.501598 c 0.04959,-0.317365 0.45769,-0.308282 0.717868,-0.423074 z M 34.952128,64.23748 33.890199,57.058848 29.424421,37.864297 c 0.251612,-3.50897 0.71651,-6.982393 1.922296,-10.332334 9.359363,-8.404943 3.788112,-3.981406 16.820079,-12.25463 1.37619,0.243813 2.115617,0.504148 4.655558,0.270324 1.677288,-0.726654 2.045713,-1.681463 2.793336,-2.553049 2.045925,-1.91067 4.717116,-1.737123 7.208604,-2.162582 4.892402,-0.18053 -0.271033,-0.119172 15.318287,0.180216 6.264129,3.411546 7.646581,11.272663 11.473699,16.159291 l 9.611416,13.936636 M 47.262536,84.59005 c 6.123806,8.799189 11.761429,9.320736 27.09805,10.47537 6.946045,-0.20581 10.239822,-1.968388 13.560504,-4.152416 10.715899,-9.173049 15.82399,-12.540041 14.0666,-29.025053 m 33.86873,37.129195 8.18477,24.389114 -9.07083,7.32874 12.3147,8.7104 -15.078,27.54289 -29.88568,0.03 7.53901,-36.70382 4.80573,-18.02151 m -64.156526,7.80935 -12.314703,21.80604 5.466527,5.70681 -10.993125,9.91183 3.237835,9.46895 33.165625,-0.0377 -6.127314,-35.86281 m -5.224576,-19.3687 1.78404,7.64589 3.483123,11.63873 6.75386,9.72726 5.989275,-11.34139 2.123855,-3.05836 7.114918,-5.03354 -1.667228,1.19998 2.962783,0.0531 -2.973398,-0.0425 -5.352116,3.69551 -2.123858,3.18579 4.417621,4.63 1.741562,3.39817 0.722111,0.42477 0.467249,20.55892 -2.123543,8.63373 19.855543,-0.0279 -1.973041,-10.85711 -1.316784,-8.45295 -1.486701,-5.35211 -1.741551,-6.28662 0.042,-0.54469 -7.305591,0.24735 -5.012301,1.74156 4.799915,-1.69908 7.580837,-0.31987 -0.657097,-2.39867 0.25486,-3.82294 2.867202,-6.40342 -2.814102,-0.5522 -4.009719,-0.76714 -3.774184,1.01138 -0.07874,0.015 3.818484,-1.00609 -0.0709,-1.27102 0.086,1.25159 4.018529,0.75561 5.861807,1.18936 9.769737,3.39817 5.73441,-16.77847 2.71852,-10.704224 0.50972,-5.43704 -2.71853,-3.737969 -3.22826,-3.143282 m -54.8751,18.312935 0.631849,0.5469 -0.382294,0.84954 3.440645,4.71496 c 0,0 22.470395,9.68478 23.022596,9.81221 0.552204,0.12744 5.352111,-1.14688 5.352111,-1.14688 l 17.245653,-24.679173 1.52918,-3.865399 0.38229,-4.247686 -0.84954,-3.058332 -1.01945,-0.254867 -0.59468,-1.656601 M 0.85090443,167.03539 3.8338746,155.60469 c 0,0 14.8977824,-12.37477 16.8200754,-12.49491 1.922296,-0.12015 36.163173,-27.87328 36.163173,-27.87328 l 0.72086,-3.48416 -0.480574,-1.08129 0.240287,-4.08487 0.586142,-1.2512 -5.901602,-14.056729 c 0,0 -3.891229,-4.841533 -6.053812,-9.046529 -0.115023,-0.21303 -0.299541,-0.779434 -0.500045,-0.939894 -0.311912,0.0403 -0.87736,1.025474 -2.547895,1.025474 0,0 -3.844589,0.12015 -6.3676,-7.568988 -2.523013,-7.689163 -4.325165,-7.088446 -4.805738,-10.572606 -0.480573,-3.48416 3.243874,0.240287 3.243874,0.240287 l -5.16617,-7.689178 c 0,0 -2.478505,-8.923321 -2.883439,-11.413628 -1.529176,-9.404304 1.682006,-17.661082 2.402866,-18.381942 0.720863,-0.720863 2.7633,-7.328749 3.964734,-9.731619 1.201436,-2.402869 6.968319,-9.0107548 8.650327,-9.4913295 1.275969,-0.3645637 5.706811,-6.0071687 14.176925,-6.72802707 3.311033,-0.281789 14.714515,-1.03837637 17.540941,1.20143207 3.1838,2.5230108 8.599994,3.3760362 9.971902,5.406453 1.501795,2.2226498 3.123732,2.0424368 5.526598,3.9647295 2.402854,1.922296 8.890568,12.374774 8.890568,18.862518 0,6.487745 1.391944,10.424792 1.391944,10.424792 0,0 0.381037,-6.099627 4.002424,-4.798663 2.02263,0.726619 4.53226,9.784587 5.71462,14.38806 0.38708,1.507096 0.39559,5.627008 -0.53638,8.459804 -1.13084,3.437289 -6.66369,2.661268 -6.66369,2.661268 l 1.01695,7.610996 3.72444,13.275791 2.64316,0.600707 3.48416,3.964716 3.84459,0.24029 7.80932,6.607841 9.49133,4.685573 25.17432,6.502311 0.0558,61.97943 z"
       sodipodi:nodetypes="ccccccccssscccccccscccccccccccssccccccscccccccccccsscccccccccccccccccccccccccccccccccccccccccccccccccccccccccccccccccccccccccccccccscccccccccscccccccccssccssssssssscsssccccccccccc" /><ellipse
       style="fill:#000000;fill-opacity:1;stroke:#000000;stroke-width:0.179"
       id="path1518"
       ry="0.6559481"
       rx="0.66958612"
       cy="54.459019"
       cx="49.751595" /><ellipse
       style="fill:#000000;fill-opacity:1;stroke:#000000;stroke-width:0.179"
       id="path1520"
       cx="78.011383"
       cy="44.76775"
       rx="0.63075298"
       ry="0.66078883" /></g></svg>
