<?xml version="1.0" encoding="UTF-8" standalone="no"?>
<svg
   id="visual"
   viewBox="0 0 346 445"
   width="346"
   height="445"
   version="1.1"
   sodipodi:docname="blob-haikei.svg"
   inkscape:version="1.2.1 (9c6d41e410, 2022-07-14, custom)"
   xmlns:inkscape="http://www.inkscape.org/namespaces/inkscape"
   xmlns:sodipodi="http://sodipodi.sourceforge.net/DTD/sodipodi-0.dtd"
   xmlns="http://www.w3.org/2000/svg"
   xmlns:svg="http://www.w3.org/2000/svg">
  <defs
     id="defs1289" />
  <sodipodi:namedview
     id="namedview1287"
     pagecolor="#ffffff"
     bordercolor="#666666"
     borderopacity="1.0"
     inkscape:showpageshadow="2"
     inkscape:pageopacity="0.0"
     inkscape:pagecheckerboard="0"
     inkscape:deskcolor="#d1d1d1"
     showgrid="false"
     inkscape:lockguides="true"
     inkscape:zoom="1.5737054"
     inkscape:cx="256.71895"
     inkscape:cy="214.14427"
     inkscape:window-width="2540"
     inkscape:window-height="1024"
     inkscape:window-x="1928"
     inkscape:window-y="44"
     inkscape:window-maximized="1"
     inkscape:current-layer="visual" />
  <g
     transform="matrix(1.0013679,0,0,1,151.44074,240.45849)"
     id="g1284">
    <path
       d="m 162.4,-201.66755 c 33.8,36.63062 37.1,101.2847 26.6,152.227279 C 178.6,1.4022447 154.2,38.333126 135.4,85.472545 116.6,132.71205 103.3,190.16008 72.7,202.07004 42.2,213.97999 -5.6,180.45197 -43.7,152.62871 c -38.1,-27.92336 -66.5,-50.14193 -83.7,-79.166208 -17.2,-29.124355 -23.2,-64.9543154 -23.8,-106.58913 -0.5,-41.534733 4.3,-88.874312 30.4,-126.806022 26.1,-37.93174 73.4,-66.4556 129.3,-76.56404 55.8,-10.10844 120.1,-1.70141 153.9,34.82914"
       fill="#BB004B"
       id="path1282"
       style="fill:#ffffff;fill-opacity:0.2;stroke-width:1.00041" />
  </g>
</svg>
