<?xml version="1.0" encoding="UTF-8" standalone="no"?>
<svg
   id="visual"
   viewBox="0 0 480 444"
   width="480"
   height="444"
   version="1.1"
   sodipodi:docname="blob2-haikei.svg"
   inkscape:version="1.2.1 (9c6d41e410, 2022-07-14, custom)"
   xmlns:inkscape="http://www.inkscape.org/namespaces/inkscape"
   xmlns:sodipodi="http://sodipodi.sourceforge.net/DTD/sodipodi-0.dtd"
   xmlns="http://www.w3.org/2000/svg"
   xmlns:svg="http://www.w3.org/2000/svg">
  <defs
     id="defs1448" />
  <sodipodi:namedview
     id="namedview1446"
     pagecolor="#ffffff"
     bordercolor="#666666"
     borderopacity="1.0"
     inkscape:showpageshadow="2"
     inkscape:pageopacity="0.0"
     inkscape:pagecheckerboard="0"
     inkscape:deskcolor="#d1d1d1"
     showgrid="false"
     inkscape:zoom="1.4566667"
     inkscape:cx="413.27231"
     inkscape:cy="300"
     inkscape:window-width="2540"
     inkscape:window-height="1024"
     inkscape:window-x="1928"
     inkscape:window-y="44"
     inkscape:window-maximized="1"
     inkscape:current-layer="visual" />
  <g
     transform="translate(449.19771,330.42735)"
     id="g1443"
     style="fill:#000000;fill-opacity:1">
    <path
       d="m -70.97791,-240.73203 c 49.23663,38.03798 102.66785,74.27413 101.76902,113.71348 -0.79897,39.339252 -55.92802,81.681499 -93.87917,121.3210478 -37.95115,39.5394462 -58.82429,76.2761052 -92.88045,98.0978552 -34.05617,21.821797 -81.49511,28.728667 -116.1505,11.411397 -34.75527,-17.217157 -56.82686,-58.758616 -90.38367,-101.2009623 -33.65668,-42.4423457 -78.69871,-85.9857907 -85.68971,-135.9356277 -7.09086,-50.04994 24.06903,-106.60639 70.10977,-145.14483 46.14061,-38.63853 107.06219,-59.15899 160.09394,-49.64952 52.93187,9.60955 97.87402,49.3492 147.01077,87.38716"
       fill="#bb004b"
       id="path1441"
       style="stroke-width:0.999859;fill:#ffffff;fill-opacity:0.2" />
  </g>
</svg>
