<?xml version="1.0" encoding="UTF-8" standalone="no"?>
<!-- Created with Inkscape (http://www.inkscape.org/) -->

<svg
   width="394"
   height="230"
   viewBox="0 0 104.24583 60.854166"
   version="1.1"
   id="svg5"
   xml:space="preserve"
   inkscape:version="1.2.1 (9c6d41e410, 2022-07-14, custom)"
   sodipodi:docname="logos.svg"
   xmlns:inkscape="http://www.inkscape.org/namespaces/inkscape"
   xmlns:sodipodi="http://sodipodi.sourceforge.net/DTD/sodipodi-0.dtd"
   xmlns="http://www.w3.org/2000/svg"
   xmlns:svg="http://www.w3.org/2000/svg"><sodipodi:namedview
     id="namedview7"
     pagecolor="#ffffff"
     bordercolor="#666666"
     borderopacity="1.0"
     inkscape:showpageshadow="2"
     inkscape:pageopacity="0.0"
     inkscape:pagecheckerboard="0"
     inkscape:deskcolor="#d1d1d1"
     inkscape:document-units="mm"
     showgrid="false"
     inkscape:zoom="1.557211"
     inkscape:cx="174.99234"
     inkscape:cy="203.56907"
     inkscape:window-width="2540"
     inkscape:window-height="1024"
     inkscape:window-x="1928"
     inkscape:window-y="44"
     inkscape:window-maximized="1"
     inkscape:current-layer="layer1"
     showguides="false" /><defs
     id="defs2" /><g
     inkscape:label="Layer 1"
     inkscape:groupmode="layer"
     id="layer1"><text
       xml:space="preserve"
       style="font-style:normal;font-weight:normal;font-size:10.5833px;line-height:1.25;font-family:sans-serif;fill:#000000;fill-opacity:1;stroke:none;stroke-width:0.264583"
       x="40.947941"
       y="60.997139"
       id="text252"><tspan
         id="tspan250"
         style="stroke-width:0.264583"
         sodipodi:role="line"
         x="40.947941"
         y="60.997139" /></text><path
       id="path412"
       style="fill:#000000;fill-opacity:1;stroke:none;stroke-width:0.365575px;stroke-linecap:butt;stroke-linejoin:miter;stroke-opacity:1"
       d="M 17.710002,6.8209631 9.123594,21.46084 h 3.577433 L 21.288149,6.8209631 Z M 8.294242,7.511813 0,12.760273 v 2.761972 l 8.294242,5.247746 V 17.593366 L 3.0088154,14.141257 8.294242,10.688438 Z m 13.961128,0 v 3.176625 l 5.285427,3.452819 -5.285427,3.452109 v 3.176625 l 8.294241,-5.247746 v -2.761972 z" /><path
       id="path412-3-6"
       style="fill:#000000;fill-opacity:1;stroke:none;stroke-width:0.365575px;stroke-linecap:butt;stroke-linejoin:miter;stroke-opacity:1"
       d="m 79.375253,38.098742 v 3.176626 l 5.28471,3.452821 -5.28471,3.452109 v 3.176624 l 8.293523,-5.247746 v -2.762687 z m 9.379337,13.879802 v 2.210291 h 13.82397 v -2.210291 z" /><g
       style="fill:#000000"
       id="g1301"
       transform="matrix(0.70580994,0,0,0.7051622,-62.923551,21.999528)"><path
         d="m 146.22457,15.616989 c -0.49588,-1.7e-5 -0.88485,0.42556 -0.84035,0.919438 l 2.96922,33.26122 c 0.0308,0.347635 0.27252,0.640406 0.60802,0.736539 l 13.5065,3.857352 c 0.15132,0.04318 0.31169,0.04318 0.46301,0 l 13.51969,-3.857352 c 0.3355,-0.09613 0.57718,-0.388904 0.60802,-0.736539 l 2.96756,-33.26122 c 0.0445,-0.493874 -0.34447,-0.919449 -0.84034,-0.919438 z m 0.92273,1.687283 h 31.11587 l -2.83246,31.766723 -12.73042,3.633261 -12.71723,-3.633261 z m 10.49608,5.061848 c -0.46591,4.7e-5 -0.84359,0.377731 -0.84364,0.843641 v 15.716117 l -4.83611,-1.33961 c -0.53732,-0.149139 -1.06895,0.254703 -1.06938,0.812334 v 4.17207 c 2.7e-4,0.378782 0.25295,0.710956 0.61791,0.812334 l 9.28006,2.573766 c 0.53731,0.149131 1.06893,-0.254708 1.06937,-0.812334 V 23.209761 c -5e-5,-0.46591 -0.37773,-0.843594 -0.84364,-0.843641 z m 6.74913,0 c -0.46591,4.7e-5 -0.84359,0.377731 -0.84364,0.843641 v 14.341904 c -3.9e-4,0.523506 0.4711,0.921004 0.987,0.832107 l 4.84929,-0.835402 -0.10051,1.494497 -5.11622,1.407168 c -0.36562,0.10076 -0.61908,0.433086 -0.61956,0.812334 v 3.882069 c -3.6e-4,0.557421 0.53033,0.961981 1.06774,0.813982 l 8.43641,-2.320014 c 0.34031,-0.09389 0.58619,-0.389734 0.61626,-0.741481 l 0.88977,-10.334607 c 0.0466,-0.540585 -0.42174,-0.984025 -0.95897,-0.907904 l -4.98936,0.706879 v -4.933325 h 5.61384 c 0.43775,-1.29e-4 0.80269,-0.335016 0.84035,-0.77114 l 0.29165,-3.374566 c 0.0424,-0.492622 -0.3459,-0.915988 -0.84035,-0.916142 z"
         id="path1292"
         style="stroke-width:0.843641"
         sodipodi:nodetypes="cccccccccccccccccccccccccccccccccccccccccccccccccc" /></g><g
       style="fill:#000000"
       id="g1312"
       transform="matrix(0.73148766,0,0,0.73081633,33.104238,-5.1157144)"><path
         d="m 9,7 3,34 14,4 14,-4 C 41,29.667 42,18.333 43,7 Z m 2.183594,2 H 40.816406 L 38.128906,39.455078 26,42.919922 13.871094,39.455078 Z m 7.367187,6 -0.960937,12 H 30.580078 L 30.169922,32 26,32.619141 21.880859,32 21.699219,30 h -3.859375 l 0.390625,5 7.759765,2 7.769532,-2 L 34.75,23 H 22.089844 l 0.320312,-4 h 8.359375 L 31,21 h 3.699219 L 34,15 Z"
         id="path1303" /></g><g
       style="fill:#000000;fill-rule:evenodd"
       id="g1323"
       transform="matrix(0.73148766,0,0,0.73081633,73.523352,-4.384898)"><path
         fill-rule="evenodd"
         d="M 39,40 25,44 11,40 8,6 H 42 C 41,17.332031 40,28.667969 39,40 Z M 39.816406,8 H 10.183594 l 2.6875,30.453125 L 25,41.921875 37.128906,38.453125 Z M 16.800781,28 h 4 l 0.09766,2.5 L 25,31.898438 29.101563,30.5 29.398438,26 h -8.796875 l -0.203125,-4 h 9.203125 l 0.296875,-4 H 16.101563 l -0.300782,-4 h 18.300782 l -0.5,8 L 32.898438,33.5 25,36.101563 17.101563,33.5 Z"
         id="path1314" /></g><g
       style="fill:#000000"
       id="g1410"
       transform="matrix(1.219146,0,0,1.2180273,-3.2678878,27.967623)"><path
         d="M 15,3 C 8.373,3 3,8.373 3,15 3,21.627 8.373,27 15,27 21.627,27 27,21.627 27,15 27,8.373 21.627,3 15,3 Z m -1,5 h 2 v 2.007812 c 1.86,0.043 2.970703,0.976329 2.970703,2.486329 0,1.06 -0.782594,1.982765 -1.808594,2.134765 v 0.125 c 1.324,0.097 2.28711,1.095766 2.28711,2.384766 0,1.75 -1.320219,2.856375 -3.449219,2.859375 V 22 H 14 V 20 H 11.5 V 10 H 14 Z m -0.40625,3.601562 v 2.542969 h 1.572266 c 1.13,0 1.746093,-0.463578 1.746093,-1.267578 0,-0.797 -0.574265,-1.27539 -1.572265,-1.275391 z m 0,3.957032 v 2.839844 h 1.863281 c 1.206,0 1.857422,-0.506407 1.857422,-1.441407 0,-0.915 -0.67325,-1.398437 -1.90625,-1.398437 z"
         id="path1401" /></g></g></svg>
