<?xml version="1.0" encoding="UTF-8" standalone="no"?>
<svg
   id="visual"
   viewBox="0 0 960 65"
   width="960"
   height="65"
   version="1.1"
   sodipodi:docname="wave-haikei.svg"
   inkscape:version="1.2.1 (9c6d41e410, 2022-07-14, custom)"
   xmlns:inkscape="http://www.inkscape.org/namespaces/inkscape"
   xmlns:sodipodi="http://sodipodi.sourceforge.net/DTD/sodipodi-0.dtd"
   xmlns="http://www.w3.org/2000/svg"
   xmlns:svg="http://www.w3.org/2000/svg">
  <defs
     id="defs9" />
  <sodipodi:namedview
     id="namedview7"
     pagecolor="#ffffff"
     bordercolor="#666666"
     borderopacity="1.0"
     inkscape:showpageshadow="2"
     inkscape:pageopacity="0.0"
     inkscape:pagecheckerboard="0"
     inkscape:deskcolor="#d1d1d1"
     showgrid="false"
     inkscape:zoom="1.1444654"
     inkscape:cx="506.78683"
     inkscape:cy="298.82947"
     inkscape:window-width="2540"
     inkscape:window-height="1024"
     inkscape:window-x="1928"
     inkscape:window-y="44"
     inkscape:window-maximized="1"
     inkscape:current-layer="visual" />
  <path
     d="m 0,30.901475 17.8,-3.4 c 17.9,-3.45 53.5,-10.25 89,-16.25 35.5,-6 70.9,-11.19999991 106.4,-11.24999991 35.5,-0.1 71.1,4.90000001 106.8,10.24999991 35.7,5.3 71.3,11 106.8,7.55 35.5,-3.4 70.9,-15.8999999 106.4,-17.0499999 35.5,-1.20000001 71.1,8.9999999 106.8,14.2499999 35.7,5.25 71.3,5.55 106.8,8.25 35.5,2.65 70.9,7.65 106.4,10.5 35.5,2.8 71.1,3.5 89,3.8 l 17.8,0.35 V 65 H 0 Z"
     fill="#0066FF"
     stroke-linecap="round"
     stroke-linejoin="miter"
     id="path4"
     style="fill:#000000;stroke-width:0.707107;fill-opacity:1"
     sodipodi:nodetypes="ccsccccsccccccc" />
</svg>
