<?xml version="1.0" encoding="UTF-8" standalone="no"?>
<svg
   id="visual"
   viewBox="0 0 890 85"
   width="890"
   height="85"
   version="1.1"
   sodipodi:docname="wave2.svg"
   inkscape:version="1.2.1 (9c6d41e410, 2022-07-14, custom)"
   xmlns:inkscape="http://www.inkscape.org/namespaces/inkscape"
   xmlns:sodipodi="http://sodipodi.sourceforge.net/DTD/sodipodi-0.dtd"
   xmlns="http://www.w3.org/2000/svg"
   xmlns:svg="http://www.w3.org/2000/svg">
  <defs
     id="defs281" />
  <sodipodi:namedview
     id="namedview279"
     pagecolor="#ffffff"
     bordercolor="#666666"
     borderopacity="1.0"
     inkscape:showpageshadow="2"
     inkscape:pageopacity="0.0"
     inkscape:pagecheckerboard="0"
     inkscape:deskcolor="#d1d1d1"
     showgrid="false"
     inkscape:zoom="1.4566667"
     inkscape:cx="503.54691"
     inkscape:cy="131.12128"
     inkscape:window-width="2540"
     inkscape:window-height="1024"
     inkscape:window-x="1928"
     inkscape:window-y="44"
     inkscape:window-maximized="1"
     inkscape:current-layer="visual"
     inkscape:lockguides="true" />
  <path
     d="m -5,53 16.7,4.3 c 16.6,4.4 50,13 83.3,9.4 33.3,-3.7 66.7,-19.7 100,-28.9 33.3,-9.1 66.7,-11.5 100,-6.5 33.3,5 66.7,17.4 100,23.4 33.3,6 66.7,3.883753 100,5.283753 33.3,1.3 66.7,6.016247 100,6.516247 33.3,0.5 66.7,-1.5 100,-1.8 33.3,-0.4 66.7,1 100,5.5 33.3,4.5 66.7,8.3 83.3,12.2 L 895,85.5 V 0 H -5 Z"
     fill="#0066FF"
     stroke-linecap="round"
     stroke-linejoin="miter"
     id="path276"
     style="fill:#000000;fill-opacity:1"
     sodipodi:nodetypes="ccccsscscsccccc" />
</svg>
