<?xml version="1.0" encoding="UTF-8" standalone="no"?>
<svg
   viewBox="0 0 950 65"
   xmlns="http://www.w3.org/2000/svg">
   <path
     d="m -5,30.901475 17.8,-3.4 c 17.9,-3.45 53.5,-10.25 89,-16.25 35.5,-6 70.9,-11.19999991 106.4,-11.24999991 35.5,-0.1 71.1,4.90000001 106.8,10.24999991 35.7,5.3 71.3,11 106.8,7.55 35.5,-3.4 70.9,-15.8999999 106.4,-17.0499999 35.5,-1.20000001 71.1,8.9999999 106.8,14.2499999 35.7,5.25 71.3,5.55 106.8,8.25 35.5,2.65 70.9,7.65 106.4,10.5 35.5,2.8 71.1,3.5 89,3.8 l 17.8,0.35 V 65 H -5 Z"
   />
</svg>
